<?xml version="1.0" encoding="UTF-8" standalone="no"?><!DOCTYPE svg PUBLIC "-//W3C//DTD SVG 1.1//EN" "http://www.w3.org/Graphics/SVG/1.1/DTD/svg11.dtd"><svg width="100%" height="100%" viewBox="0 0 4077 1176" version="1.1" xmlns="http://www.w3.org/2000/svg" xmlns:xlink="http://www.w3.org/1999/xlink" xml:space="preserve" style="fill-rule:evenodd;clip-rule:evenodd;stroke-linejoin:round;stroke-miterlimit:1.41421;"><g><path id="Composite-Path" d="M428.163,33.486c11.488,-18.834 32.273,-31.7 54.345,-33.216c23.467,-2.144 47.508,8.605 61.62,27.412c14.659,18.779 18.461,45.194 9.969,67.416c-7.248,19.64 -23.781,35.388 -43.596,42.066c0.014,167.625 0,335.25 0,502.86c17.654,6.038 32.806,19.094 40.929,35.907c10.831,21.716 9.218,49.046 -4.239,69.274c-12.663,19.735 -35.719,32.288 -59.213,31.987c-23.452,0.164 -46.44,-12.429 -59.008,-32.192c-13.115,-19.859 -14.837,-46.492 -4.649,-67.948c8.013,-17.346 23.439,-30.854 41.49,-37.028c-0.041,-167.624 0,-335.249 -0.027,-502.874c-17.231,-5.886 -32.096,-18.451 -40.329,-34.718c-11.185,-21.375 -10.132,-48.527 2.708,-68.946Zm53.47,-2.444c-17.135,2.813 -31.207,17.864 -32.793,35.128c-2.995,22.126 15.754,43.897 38.099,44.211c22.646,1.666 43.459,-19.108 41.722,-41.753c-0.301,-23.328 -24.15,-42.38 -47.028,-37.586Zm0.027,636.504c-17.134,2.785 -31.206,17.823 -32.82,35.087c-2.94,21.73 15.07,43.2 36.991,44.197c22.496,2.24 43.815,-17.755 42.858,-40.332c0.574,-23.833 -23.672,-43.924 -47.029,-38.952Z" style="fill:#fff;"/><path id="Composite-Path1" d="M254.314,231.131c8.615,-19.49 33.422,-29.419 53.005,-20.637c19.979,7.854 30.495,32.779 22.071,52.542c-5.798,14.997 -21.155,25.718 -37.292,25.609c-15.124,0.519 -29.62,-8.454 -36.745,-21.634c-13.934,-0.028 -27.87,0 -41.805,0c-26.283,26.278 -52.567,52.556 -78.905,78.78c-2.119,2.43 -5.866,4.424 -5.196,8.18c0.054,41.958 0,83.915 0.027,125.873c0.192,5.08 -1.709,10.188 -5.374,13.767c-29.388,29.378 -58.803,58.729 -88.204,88.094c0,84.488 0,168.976 0,253.465c28.991,28.942 57.955,57.896 86.946,86.824c3.842,3.579 6.03,8.741 5.88,13.999c-0.014,37.301 -0.014,74.614 0,111.928c38.523,0 77.045,-0.027 115.568,0.014c5.073,-0.178 10.065,1.829 13.593,5.463c28.02,28.013 56.095,55.957 84.061,84.01c1.327,1.093 2.543,2.991 4.554,2.691c95.52,0.014 191.04,0 286.561,0c28.745,-28.709 57.49,-57.419 86.235,-86.128c3.405,-3.51 8.177,-5.64 13.087,-5.586c38.782,-0.041 77.578,0 116.361,-0.027c0.027,-37.505 -0.014,-75.024 0.027,-112.528c-0.136,-4.986 1.983,-9.821 5.511,-13.29c29.361,-29.35 58.762,-58.675 88.122,-88.025c-0.013,-85.09 0.014,-170.166 -0.013,-255.255c-28.595,-28.532 -57.162,-57.104 -85.771,-85.636c-3.773,-3.55 -5.962,-8.631 -5.757,-13.822c-0.013,-42.49 0.014,-84.979 0,-127.469c-28.403,-28.314 -56.764,-56.668 -85.14,-85.022c-14.455,-0.013 -28.896,0 -43.35,0c-6.92,14.737 -22.879,24.803 -39.289,23.642c-20.02,-0.559 -37.62,-17.946 -38.55,-37.901c-1.709,-19.435 12.663,-38.57 31.795,-42.435c17.545,-4.275 36.758,4.944 45.073,20.801c17.381,0.082 34.762,-0.068 52.143,0.068c4.895,0 9.531,2.322 12.895,5.819c31.658,31.673 63.385,63.277 95.042,94.964c3.597,3.523 5.415,8.563 5.279,13.562c0,42.395 0,84.789 0,127.184c28.731,28.709 57.49,57.39 86.207,86.113c3.569,3.497 5.443,8.468 5.306,13.44c0,89.76 0.027,179.521 -0.013,269.267c0.082,4.931 -2.011,9.725 -5.553,13.125c-29.333,29.325 -58.679,58.634 -88.04,87.931c0,40.946 0.014,81.893 0,122.839c0.534,9.575 -7.78,18.453 -17.395,18.466c-41.831,0.137 -83.677,-0.027 -125.509,0.069c-1.627,-0.082 -2.927,0.533 -3.911,1.844c-28.007,28.067 -56.096,56.038 -84.13,84.065c-3.651,3.878 -8.902,6.036 -14.235,5.804c-100.334,-0.013 -200.682,-0.027 -301.016,0c-5.347,0.26 -10.653,-1.816 -14.331,-5.709c-28.007,-28.04 -56.123,-55.971 -84.088,-84.051c-1.177,-1.025 -2.27,-2.623 -4.034,-2.404c-41.969,-0.109 -83.952,0.055 -125.921,-0.082c-9.408,-0.013 -17.613,-8.632 -17.257,-18.015c-0.041,-41.001 0,-81.989 -0.028,-122.99c-29.004,-28.968 -58.01,-57.951 -87.028,-86.92c-3.883,-3.605 -5.962,-8.837 -5.771,-14.108c0.027,-89.146 -0.027,-178.305 0.027,-267.451c-0.027,-4.917 2.093,-9.684 5.648,-13.044c29.293,-29.228 58.543,-58.511 87.863,-87.711c0,-42.996 0,-85.978 0,-128.973c-0.247,-5.122 1.75,-10.216 5.456,-13.767c31.234,-31.222 62.509,-62.404 93.715,-93.639c3.378,-3.579 8.068,-5.969 13.06,-5.914c16.178,-0.178 32.355,-0.028 48.533,-0.069Zm35.596,-6.146c-10.994,0.71 -20.485,10.189 -21.196,21.17c-1.217,11.582 7.712,23.028 19.24,24.707c10.845,2.077 22.428,-4.848 25.792,-15.324c5.853,-14.983 -7.905,-32.52 -23.836,-30.553Zm390.984,2.718c-13.224,2.254 -22.003,17.387 -17.367,29.993c3.624,11.814 17.723,18.916 29.374,14.601c11.542,-3.565 18.571,-17.1 14.769,-28.56c-3.063,-11.199 -15.439,-18.574 -26.776,-16.034Z" style="fill:#fff;"/><path id="Composite-Path2" d="M744.304,289.902c24.642,23 49.299,46.014 73.954,69c4.021,3.565 6.304,8.878 5.963,14.259c-0.78,40.564 -1.655,81.142 -2.475,121.72c30.358,31.099 60.73,62.185 91.09,93.298c3.555,3.414 5.497,8.263 5.387,13.179c0.014,70.585 -0.014,141.183 0.014,211.768c0.219,5.272 -1.819,10.558 -5.758,14.122c-30.07,29.078 -60.156,58.129 -90.187,87.22c-0.957,30.677 -1.668,61.352 -2.707,92.014c-0.274,8.851 -8.233,16.472 -17.093,16.404c-29.443,0.245 -58.886,0.218 -88.328,0.505c-31.138,30.567 -62.331,61.051 -93.483,91.59c-3.528,3.661 -8.561,5.6 -13.634,5.341c-79.78,-0.178 -159.575,-0.396 -239.369,-0.601c-5.292,0.219 -10.365,-2.131 -13.962,-5.942c-28.184,-27.411 -56.505,-54.686 -84.676,-82.125c-1.217,-0.942 -2.243,-2.595 -3.966,-2.431c-30.55,-0.546 -61.113,-0.724 -91.664,-1.229c-8.984,0.027 -16.916,-7.99 -16.943,-16.949c-0.643,-31.441 -1.162,-62.896 -1.709,-94.35c-29.498,-30.294 -58.954,-60.628 -88.437,-90.922c-3.692,-3.674 -5.374,-8.905 -5.115,-14.054c0.165,-68.344 0.042,-136.703 0.165,-205.061c-0.069,-4.985 2.16,-9.738 5.729,-13.166c28.827,-29.938 57.504,-60.027 86.372,-89.924c1.053,-1.311 2.762,-2.555 2.503,-4.453c-0.151,-41.056 -0.438,-82.112 -0.588,-123.168c-0.206,-4.807 1.558,-9.588 4.936,-13.016c23.33,-24.134 46.687,-48.254 70.058,-72.346c8.356,8.085 16.738,16.143 25.093,24.229c-21.675,22.426 -43.377,44.826 -65.079,67.225c0.15,38.57 0.383,77.126 0.547,115.697c4.786,4.862 9.668,9.656 14.468,14.518c17.641,-8.318 40.492,-2.199 51.131,14.246c12.239,17.195 7.727,43.282 -9.518,55.437c-16.273,12.647 -41.777,9.848 -54.973,-5.955c-10.776,-11.964 -12.896,-30.198 -6.072,-44.647c-1.846,-1.844 -3.678,-3.688 -5.498,-5.532c-28.075,29.214 -56.108,58.47 -84.17,87.698c-0.027,64.302 -0.109,128.603 -0.136,192.905c25.996,26.592 51.814,53.362 77.824,79.955c4.417,-4.453 8.889,-8.851 13.293,-13.317c-9.081,-17.578 -3.323,-41.083 13.319,-51.996c17.368,-12.634 44.116,-7.963 56.205,9.779c12.594,16.649 9.094,42.531 -7.412,55.301c-11.611,9.724 -28.54,11.636 -42.365,5.723c-5.675,6.105 -12.335,11.404 -17.381,18.001c0.245,27.821 1.025,55.656 1.435,83.491c27.419,0.424 54.837,0.683 82.242,1.093c4.759,-0.095 9.409,1.803 12.773,5.177c28.43,27.616 56.97,55.123 85.359,82.781c1.204,1.024 2.38,2.622 4.212,2.417c73.942,0.178 147.896,0.382 221.838,0.656c1.982,0.082 4.102,-0.137 5.36,-1.885c30.345,-29.829 60.814,-59.535 91.158,-89.351c3.624,-3.865 8.82,-6.023 14.126,-5.804c25.682,-0.055 51.35,-0.219 77.032,-0.342c0.711,-25.855 1.6,-51.709 2.27,-77.564c-5.894,-5.832 -11.733,-11.718 -17.613,-17.55c-19.474,9.369 -45.087,0.396 -54.016,-19.34c-9.997,-19.381 -0.767,-45.44 19.117,-54.345c15.74,-7.812 36.225,-3.797 47.808,9.41c11.159,11.938 13.525,30.553 6.536,45.194c4.076,4.03 8.11,8.1 12.185,12.142c26.653,-25.84 53.36,-51.627 80.054,-77.413c1.682,-1.161 1.805,-3.182 1.792,-5.026c-0.028,-65.217 0.013,-130.448 -0.014,-195.665c-28.144,-28.859 -56.314,-57.691 -84.485,-86.523c-3.378,3.346 -6.755,6.692 -10.092,10.08c8.683,17.085 3.692,39.744 -11.965,51.026c-15.673,12.292 -40.206,10.366 -53.744,-4.234c-13.593,-13.467 -15.302,-36.713 -3.843,-52.023c10.749,-15.557 32.588,-21.171 49.791,-13.591c5.785,-6.228 12.595,-11.65 17.737,-18.356c1.121,-38.242 1.518,-76.525 2.42,-114.795c-22.878,-21.402 -45.811,-42.736 -68.689,-64.138c7.945,-8.496 15.89,-16.991 23.863,-25.472Zm-526.655,236.884c-15.412,3.032 -23.083,23.274 -13.565,35.756c9.272,14.628 33.914,12.265 40.163,-3.919c8.328,-16.486 -8.902,-37.013 -26.598,-31.837Zm527.817,1.215c-11.008,3.32 -18.229,15.639 -15.549,26.852c2.079,10.681 12.486,18.835 23.371,18.316c10.844,-0.151 20.759,-8.851 22.181,-19.614c3.254,-16.252 -14.427,-31.331 -30.003,-25.554Zm-523.577,303.399c-18.325,0.329 -28.622,24.762 -16.123,38.12c11.254,14.546 37.291,8.072 40.3,-10.107c3.692,-14.382 -9.435,-29.488 -24.177,-28.013Zm522.319,2.841c-12.225,4.152 -18.776,19.449 -13.128,31.113c5.087,12.388 21.771,17.701 33.067,10.435c10.269,-5.832 14.331,-20.009 8.71,-30.389c-4.964,-10.23 -18.051,-15.297 -28.649,-11.159Z" style="fill:#fff;"/><g><path id="Path" d="M1357.96,416.691l0,193.555c0,37.921 10.357,66.474 31.071,85.736c20.715,19.261 48.698,28.892 83.874,28.892c35.177,0 63.236,-9.631 84.138,-28.892c20.865,-19.262 31.335,-47.815 31.335,-85.736l0,-193.555l-38.076,0l0,193.555c0,28.29 -7.081,48.68 -21.242,61.17c-14.161,12.527 -32.766,18.772 -55.891,18.772c-23.162,0 -41.805,-6.245 -55.929,-18.772c-14.16,-12.49 -21.204,-32.88 -21.204,-61.17l0,-193.555l-38.076,0l0,0Z" style="fill:#fff;"/><path id="Path1" d="M1692.51,452.092c-24.104,27.124 -36.156,64.932 -36.156,113.386c0,48.492 11.638,87.165 34.951,116.058c23.275,28.892 53.819,43.338 91.595,43.338c37.738,0 67.491,-9.293 89.184,-27.914c21.694,-18.622 32.541,-43.827 32.541,-75.617l-40.977,0c0,20.88 -7.005,37.658 -20.978,50.336c-14.01,12.678 -33.03,18.998 -57.134,18.998c-28.925,0 -50.882,-11.399 -65.796,-34.196c-14.952,-22.798 -22.409,-53.045 -22.409,-90.777c0,-37.695 8.323,-67.152 25.045,-88.332c16.722,-21.18 37.776,-31.788 63.16,-31.788c18.304,0 34.311,5.567 47.982,16.627c13.634,11.061 23.69,26.071 30.13,44.994l40.977,-8.164c-7.42,-25.995 -21.016,-47.1 -40.751,-63.314c-19.773,-16.214 -45.873,-24.34 -78.338,-24.34c-37.926,0 -68.922,13.581 -93.026,40.705l0,0Z" style="fill:#fff;"/><path id="Path2" d="M2015.02,416.691l-38.077,0l0,302.878l173.06,0l0,-33.218l-134.983,0l0,-269.66l0,0Z" style="fill:#fff;"/><path id="Path3" d="M2273.42,449.421l98.827,0l0,270.148l38.076,0l0,-270.148l98.827,0l0,-32.73l-235.73,0l0,32.73Z" style="fill:#fff;"/><path id="Composite-Path3" d="M2591.1,671.19c-11.599,-15.236 -17.361,-34.761 -17.361,-58.536l157.654,0c4.821,-35.928 -0.753,-66.4 -16.646,-91.455c-15.894,-25.054 -39.998,-37.582 -72.312,-37.582c-32.315,0 -58.189,10.947 -77.623,32.767c-19.434,21.82 -29.15,51.05 -29.15,87.617c0,36.604 9.641,65.91 28.924,87.88c19.284,22.008 44.329,32.993 75.212,32.993c25.046,0 46.023,-6.32 62.896,-18.999c16.873,-12.677 27.08,-30.584 30.62,-53.721l-39.056,0c-4.52,27.952 -22.673,41.909 -54.46,41.909c-20.902,0 -37.135,-7.599 -48.698,-22.873l0,0Zm106.058,-87.429l-122.93,0c1.921,-19.863 8.587,-36.491 19.998,-49.808c11.413,-13.318 26.929,-20.014 46.514,-20.014c10.621,0 19.622,1.956 27.004,5.793c19.584,10.609 29.414,31.94 29.414,64.029l0,0Z" style="fill:#fff;"/><path id="Path4" d="M2814.29,515.895c-20.262,21.519 -30.356,50.636 -30.356,87.391c0,36.755 10.207,66.211 30.62,88.369c20.413,22.158 45.232,33.219 74.458,33.219c27.645,0 50.054,-7.599 67.266,-22.873c17.173,-15.236 25.799,-35.212 25.799,-59.967l-39.056,0c0,15.726 -4.596,27.877 -13.748,36.379c-9.189,8.502 -23.011,12.753 -41.465,12.753c-18.493,0 -33.934,-8.013 -46.288,-24.077c-12.353,-16.026 -18.53,-37.319 -18.53,-63.803c0,-26.484 6.327,-47.401 19.02,-62.825c12.692,-15.424 29.339,-23.136 49.902,-23.136c11.224,0 21.506,3.799 30.846,11.323c9.34,7.562 16.082,18.058 20.263,31.526l38.566,-3.349c-4.821,-20.841 -15.291,-38.259 -31.336,-52.254c-16.082,-13.957 -37.7,-20.954 -64.855,-20.954c-27.154,0 -50.843,10.759 -71.106,32.278l0,0Z" style="fill:#fff;"/><path id="Path5" d="M3094.87,391.636l-38.076,0l0,327.933l38.076,0l0,-108.834c0,-29.193 5.913,-52.066 17.814,-68.619c11.902,-16.515 27.644,-24.791 47.267,-24.791c19.584,0 34.612,5.643 45.082,16.853c10.432,11.249 15.668,27.952 15.668,50.072l0,135.319l37.586,0l0,-135.319c0,-31.111 -7.645,-55.677 -22.898,-73.659c-15.291,-17.983 -36.571,-26.974 -63.876,-26.974c-35.704,0 -61.239,16.064 -76.643,48.154l0,-140.135l0,0Z" style="fill:#fff;"/><path id="Path6" d="M3547.05,490.351c-2.56,-24.077 -12.466,-43.225 -29.64,-57.521c-17.212,-14.295 -42.031,-21.443 -74.496,-21.443c-32.465,0 -57.662,7.486 -75.664,22.384c-18.003,14.935 -27.004,33.557 -27.004,55.865c0,22.347 6.402,39.276 19.283,50.825c12.843,11.549 31.825,21.481 56.908,29.833l53.48,19.75c15.442,5.154 27.08,11.587 34.952,19.261c7.871,7.712 11.825,18.208 11.825,31.526c0,13.317 -6.44,24.904 -19.283,34.685c-12.881,9.781 -30.318,14.672 -52.313,14.672c-22.032,0 -40.035,-5.267 -54.008,-15.876c-13.973,-10.608 -20.94,-25.845 -20.94,-45.745l-37.135,0c0.64,30.509 11.637,54.172 33.03,71.026c21.354,16.854 48.734,25.281 82.179,25.281c33.444,0 60.109,-7.938 80.033,-23.814c19.923,-15.875 29.903,-35.475 29.903,-58.762c0,-23.249 -6.365,-41.307 -19.057,-54.173c-12.692,-12.828 -29.791,-22.948 -51.334,-30.359l-63.159,-21.669c-15.103,-4.815 -26.025,-10.421 -32.767,-16.854c-6.779,-6.395 -10.131,-15.8 -10.131,-28.14c0,-12.339 5.461,-22.948 16.383,-31.788c10.922,-8.803 26.515,-13.242 46.777,-13.242c37.889,0 59.582,14.784 65.081,44.278l37.097,0Z" style="fill:#fff;"/><path id="Composite-Path4" d="M3645.16,514.917c-19.773,20.879 -29.641,50.749 -29.641,89.573c0,38.523 9.868,68.242 29.641,89.084c19.735,20.879 45.684,31.3 77.848,31.3c32.126,0 58.075,-10.421 77.848,-31.3c19.773,-20.842 29.678,-50.561 29.678,-89.084c0,-38.824 -9.905,-68.694 -29.678,-89.573c-19.773,-20.842 -45.722,-31.3 -77.848,-31.3c-32.164,0 -58.113,10.458 -77.848,31.3l0,0Zm128.466,153.865c-12.203,15.575 -29.489,23.325 -51.824,23.325c-22.333,0 -39.131,-7.75 -50.354,-23.325c-11.261,-15.574 -16.873,-37.055 -16.873,-64.518c0,-27.462 5.913,-48.981 17.815,-64.556c11.901,-15.574 29,-23.362 51.334,-23.362c22.333,0 39.282,7.788 50.881,23.362c11.563,15.575 17.363,37.094 17.363,64.556c0,27.463 -6.139,48.944 -18.342,64.518l0,0Z" style="fill:#fff;"/><path id="Path7" d="M3908.61,515.895c-20.262,21.519 -30.355,50.636 -30.355,87.391c0,36.755 10.206,66.211 30.619,88.369c20.413,22.158 45.232,33.219 74.458,33.219c27.645,0 50.054,-7.599 67.266,-22.873c17.174,-15.236 25.799,-35.212 25.799,-59.967l-39.056,0c0,15.726 -4.595,27.877 -13.747,36.379c-9.19,8.502 -23.012,12.753 -41.466,12.753c-18.493,0 -33.935,-8.013 -46.288,-24.077c-12.353,-16.026 -18.529,-37.319 -18.529,-63.803c0,-26.484 6.327,-47.401 19.019,-62.825c12.692,-15.424 29.339,-23.136 49.902,-23.136c11.224,0 21.506,3.799 30.846,11.323c9.34,7.562 16.082,18.058 20.263,31.526l38.566,-3.349c-4.821,-20.841 -15.291,-38.259 -31.335,-52.254c-16.082,-13.957 -37.7,-20.954 -64.855,-20.954c-27.154,0 -50.844,10.759 -71.107,32.278l0,0Z" style="fill:#fff;"/><path id="Path8" d="M1372.77,869.428c-10.529,12.145 -15.793,29.072 -15.793,50.767c0,21.712 5.083,39.027 15.266,51.963c10.167,12.935 23.509,19.403 40.009,19.403c16.484,0 29.481,-4.16 38.956,-12.498c9.477,-8.337 14.215,-19.622 14.215,-33.855l-17.899,0c0,9.348 -3.06,16.86 -9.164,22.537c-6.12,5.676 -14.427,8.505 -24.956,8.505c-12.635,0 -22.225,-5.103 -28.74,-15.311c-6.531,-10.207 -9.789,-23.749 -9.789,-40.643c0,-16.877 3.636,-30.066 10.94,-39.549c7.304,-9.483 16.501,-14.233 27.589,-14.233c7.995,0 14.987,2.493 20.959,7.445c5.955,4.952 10.347,11.673 13.161,20.145l17.899,-3.655c-3.241,-11.639 -9.18,-21.088 -17.801,-28.348c-8.636,-7.259 -20.037,-10.898 -34.218,-10.898c-16.566,0 -30.105,6.081 -40.634,18.225l0,0Z" style="fill:#fff;"/><path id="Composite-Path5" d="M1499.21,897.557c-8.637,9.348 -12.947,22.722 -12.947,40.105c0,17.248 4.31,30.554 12.947,39.885c8.62,9.349 19.955,14.014 34.004,14.014c14.033,0 25.368,-4.665 34.005,-14.014c8.637,-9.331 12.963,-22.637 12.963,-39.885c0,-17.383 -4.326,-30.757 -12.963,-40.105c-8.637,-9.331 -19.972,-14.014 -34.005,-14.014c-14.049,0 -25.384,4.683 -34.004,14.014l0,0Zm56.115,68.891c-5.33,6.973 -12.882,10.443 -22.637,10.443c-9.756,0 -17.093,-3.47 -21.995,-10.443c-4.919,-6.974 -7.37,-16.591 -7.37,-28.887c0,-12.296 2.582,-21.931 7.781,-28.904c5.199,-6.973 12.667,-10.46 22.423,-10.46c9.756,0 17.158,3.487 22.225,10.46c5.051,6.973 7.584,16.608 7.584,28.904c0,12.296 -2.681,21.913 -8.011,28.887l0,0Z" style="fill:#fff;"/><path id="Path9" d="M1625.87,886.137l-14.313,0l0,103.049l16.632,0l0,-50.665c0.28,-12.498 3.011,-22.284 8.21,-29.325c5.198,-7.041 12.009,-10.561 20.432,-10.561c8.423,0 14.905,2.527 19.478,7.546c4.557,5.036 6.844,12.515 6.844,22.419l0,60.586l16.418,0l0,-60.586c0,-13.93 -3.34,-24.929 -10.002,-32.98c-6.679,-8.051 -15.974,-12.077 -27.901,-12.077c-16.007,0 -27.309,7.479 -33.89,22.419l-1.908,-19.825l0,0Z" style="fill:#fff;"/><path id="Path10" d="M1753.27,886.137l-14.312,0l0,103.049l16.632,0l0,-50.665c0.28,-12.498 3.011,-22.284 8.209,-29.325c5.199,-7.041 12.01,-10.561 20.432,-10.561c8.423,0 14.905,2.527 19.479,7.546c4.557,5.036 6.843,12.515 6.843,22.419l0,60.586l16.419,0l0,-60.586c0,-13.93 -3.34,-24.929 -10.003,-32.98c-6.679,-8.051 -15.974,-12.077 -27.901,-12.077c-16.007,0 -27.309,7.479 -33.889,22.419l-1.909,-19.825l0,0Z" style="fill:#fff;"/><path id="Composite-Path6" d="M1880.04,967.526c-5.067,-6.822 -7.584,-15.564 -7.584,-26.209l68.864,0c2.106,-16.086 -0.328,-29.729 -7.271,-40.947c-6.943,-11.218 -17.471,-16.827 -31.586,-16.827c-14.115,0 -25.417,4.902 -33.906,14.671c-8.489,9.769 -12.733,22.857 -12.733,39.229c0,16.389 4.211,29.51 12.634,39.346c8.423,9.854 19.364,14.772 32.853,14.772c10.94,0 20.103,-2.829 27.473,-8.506c7.371,-5.676 11.829,-13.693 13.376,-24.052l-17.061,0c-1.973,12.515 -9.904,18.763 -23.788,18.763c-9.13,0 -16.22,-3.402 -21.271,-10.24l0,0Zm46.327,-39.145l-53.698,0c0.839,-8.894 3.752,-16.338 8.736,-22.301c4.985,-5.963 11.763,-8.961 20.318,-8.961c4.639,0 8.57,0.876 11.795,2.594c8.554,4.75 12.849,14.3 12.849,28.668l0,0Z" style="fill:#fff;"/><path id="Path11" d="M1977.53,897.995c-8.85,9.635 -13.259,22.672 -13.259,39.128c0,16.456 4.458,29.645 13.374,39.565c8.917,9.921 19.758,14.873 32.524,14.873c12.075,0 21.864,-3.402 29.381,-10.241c7.503,-6.821 11.269,-15.765 11.269,-26.848l-17.059,0c0,7.04 -2.007,12.481 -6.005,16.287c-4.014,3.807 -10.051,5.711 -18.113,5.711c-8.077,0 -14.821,-3.588 -20.217,-10.781c-5.396,-7.175 -8.094,-16.708 -8.094,-28.566c0,-11.858 2.763,-21.223 8.307,-28.129c5.544,-6.906 12.816,-10.359 21.798,-10.359c4.902,0 9.393,1.701 13.473,5.07c4.08,3.386 7.025,8.085 8.851,14.115l16.847,-1.499c-2.107,-9.331 -6.68,-17.13 -13.689,-23.396c-7.024,-6.249 -16.467,-9.382 -28.328,-9.382c-11.862,0 -22.209,4.817 -31.06,14.452l0,0Z" style="fill:#fff;"/><path id="Path12" d="M2133.78,974.094c-6.465,2.594 -12.289,3.875 -17.471,3.875c-9.558,0 -14.329,-5.239 -14.329,-15.732l0,-63.164l31.586,0l0,-12.936l-31.586,0l0,-28.684l-16.418,0l0,28.684l-16.222,0l0,12.936l16.222,0l0,63.383c0,5.036 0.773,9.348 2.319,12.935c2.928,7.344 7.979,12.145 15.151,14.435c9.97,3.302 20.992,2.089 33.068,-3.655l-2.32,-12.077l0,0Z" style="fill:#fff;"/><path id="Path13" d="M2168.73,987.569c2.385,-2.358 3.586,-5.238 3.586,-8.624c0,-3.368 -1.201,-6.249 -3.586,-8.623c-2.385,-2.358 -5.363,-3.554 -8.95,-3.554c-3.586,0 -6.53,1.196 -8.834,3.554c-2.319,2.374 -3.471,5.255 -3.471,8.623c0,3.386 1.152,6.266 3.471,8.624c2.304,2.358 5.248,3.554 8.834,3.554c3.587,0 6.565,-1.196 8.95,-3.554l0,0Z" style="fill:#fff;"/><path id="Path14" d="M2256.13,869.428c-10.529,12.145 -15.793,29.072 -15.793,50.767c0,21.712 5.083,39.027 15.267,51.963c10.167,12.935 23.508,19.403 40.009,19.403c16.484,0 29.48,-4.16 38.956,-12.498c9.476,-8.337 14.213,-19.622 14.213,-33.855l-17.898,0c0,9.348 -3.06,16.86 -9.164,22.537c-6.12,5.676 -14.427,8.505 -24.956,8.505c-12.634,0 -22.226,-5.103 -28.74,-15.311c-6.531,-10.207 -9.788,-23.749 -9.788,-40.643c0,-16.877 3.635,-30.066 10.94,-39.549c7.304,-9.483 16.501,-14.233 27.588,-14.233c7.995,0 14.987,2.493 20.958,7.445c5.956,4.952 10.349,11.673 13.162,20.145l17.898,-3.655c-3.24,-11.639 -9.179,-21.088 -17.8,-28.348c-8.637,-7.259 -20.037,-10.898 -34.218,-10.898c-16.566,0 -30.106,6.081 -40.634,18.225l0,0Z" style="fill:#fff;"/><path id="Path15" d="M2434.28,902.728l0.839,-16.591c-3.652,-1.297 -7.518,-1.954 -11.582,-1.954c-12.783,0 -21.698,7.193 -26.749,21.56l0,-19.825l-16.632,0l0,103.268l16.632,0l0,-50.227c0.559,-25.586 8.768,-38.387 24.643,-38.387c4.344,0 8.637,0.724 12.849,2.156l0,0Z" style="fill:#fff;"/><path id="Composite-Path7" d="M2473.86,967.526c-5.067,-6.822 -7.583,-15.564 -7.583,-26.209l68.864,0c2.105,-16.086 -0.329,-29.729 -7.272,-40.947c-6.942,-11.218 -17.471,-16.827 -31.586,-16.827c-14.115,0 -25.417,4.902 -33.905,14.671c-8.489,9.769 -12.733,22.857 -12.733,39.229c0,16.389 4.211,29.51 12.634,39.346c8.423,9.854 19.363,14.772 32.852,14.772c10.941,0 20.104,-2.829 27.474,-8.506c7.37,-5.676 11.828,-13.693 13.374,-24.052l-17.059,0c-1.975,12.515 -9.904,18.763 -23.789,18.763c-9.13,0 -16.221,-3.402 -21.271,-10.24l0,0Zm46.327,-39.145l-53.697,0c0.839,-8.894 3.751,-16.338 8.736,-22.301c4.985,-5.963 11.762,-8.961 20.317,-8.961c4.639,0 8.571,0.876 11.795,2.594c8.555,4.75 12.849,14.3 12.849,28.668l0,0Z" style="fill:#fff;"/><path id="Composite-Path8" d="M2631.17,935.506c-9.837,-3.739 -20.153,-5.609 -30.961,-5.609c-10.825,0 -19.84,2.594 -27.062,7.765c-7.238,5.188 -10.842,12.363 -10.842,21.56c0,9.196 3.257,16.894 9.789,23.075c6.515,6.182 15.184,9.264 26.009,9.264c16.139,0 27.292,-6.535 33.478,-19.622l1.694,17.247l14.314,0l0,-66.397c0,-13.222 -3.521,-23.076 -10.53,-29.544c-7.024,-6.468 -16.78,-9.702 -29.266,-9.702c-5.906,0 -11.384,0.573 -16.435,1.718c-16.567,3.739 -24.841,13.526 -24.841,29.325l18.327,0c0,-6.316 2.204,-10.948 6.629,-13.896c4.409,-2.947 10.233,-4.43 17.471,-4.43c7.223,0 12.734,2.021 16.534,6.047c3.784,4.026 5.692,10.713 5.692,20.044l0,13.155Zm-8.752,33.957c-5.824,5.962 -12.815,8.943 -20.943,8.943c-14.328,0 -21.484,-6.467 -21.484,-19.403c0,-5.896 2.302,-10.207 6.942,-12.936c4.639,-2.729 10.676,-4.093 18.113,-4.093c7.435,0 16.154,1.448 26.124,4.312c0,9.5 -2.928,17.214 -8.752,23.177l0,0Z" style="fill:#fff;"/><path id="Path16" d="M2737.08,974.094c-6.465,2.594 -12.289,3.875 -17.471,3.875c-9.558,0 -14.329,-5.239 -14.329,-15.732l0,-63.164l31.587,0l0,-12.936l-31.587,0l0,-28.684l-16.418,0l0,28.684l-16.221,0l0,12.936l16.221,0l0,63.383c0,5.036 0.773,9.348 2.319,12.935c2.929,7.344 7.979,12.145 15.152,14.435c9.969,3.302 20.992,2.089 33.067,-3.655l-2.32,-12.077l0,0Z" style="fill:#fff;"/><path id="Composite-Path9" d="M2779.19,967.526c-5.067,-6.822 -7.584,-15.564 -7.584,-26.209l68.864,0c2.106,-16.086 -0.329,-29.729 -7.271,-40.947c-6.943,-11.218 -17.471,-16.827 -31.586,-16.827c-14.115,0 -25.417,4.902 -33.906,14.671c-8.489,9.769 -12.733,22.857 -12.733,39.229c0,16.389 4.211,29.51 12.634,39.346c8.424,9.854 19.363,14.772 32.853,14.772c10.94,0 20.103,-2.829 27.473,-8.506c7.371,-5.676 11.829,-13.693 13.375,-24.052l-17.06,0c-1.973,12.515 -9.903,18.763 -23.788,18.763c-9.13,0 -16.221,-3.402 -21.271,-10.24l0,0Zm46.327,-39.145l-53.697,0c0.839,-8.894 3.751,-16.338 8.736,-22.301c4.984,-5.963 11.762,-8.961 20.317,-8.961c4.639,0 8.57,0.876 11.796,2.594c8.554,4.75 12.848,14.3 12.848,28.668l0,0Z" style="fill:#fff;"/><path id="Path17" d="M2880.47,987.569c2.385,-2.358 3.587,-5.238 3.587,-8.624c0,-3.368 -1.202,-6.249 -3.587,-8.623c-2.385,-2.358 -5.363,-3.554 -8.95,-3.554c-3.586,0 -6.53,1.196 -8.834,3.554c-2.319,2.374 -3.471,5.255 -3.471,8.623c0,3.386 1.152,6.266 3.471,8.624c2.304,2.358 5.248,3.554 8.834,3.554c3.587,0 6.565,-1.196 8.95,-3.554l0,0Z" style="fill:#fff;"/><path id="Path18" d="M2967.87,869.428c-10.529,12.145 -15.793,29.072 -15.793,50.767c0,21.712 5.083,39.027 15.266,51.963c10.167,12.935 23.509,19.403 40.01,19.403c16.483,0 29.48,-4.16 38.956,-12.498c9.476,-8.337 14.214,-19.622 14.214,-33.855l-17.899,0c0,9.348 -3.06,16.86 -9.164,22.537c-6.119,5.676 -14.428,8.505 -24.956,8.505c-12.634,0 -22.226,-5.103 -28.74,-15.311c-6.531,-10.207 -9.789,-23.749 -9.789,-40.643c0,-16.877 3.636,-30.066 10.94,-39.549c7.305,-9.483 16.501,-14.233 27.589,-14.233c7.995,0 14.987,2.493 20.959,7.445c5.955,4.952 10.347,11.673 13.161,20.145l17.899,-3.655c-3.241,-11.639 -9.18,-21.088 -17.801,-28.348c-8.636,-7.259 -20.038,-10.898 -34.218,-10.898c-16.566,0 -30.105,6.081 -40.634,18.225l0,0Z" style="fill:#fff;"/><path id="Composite-Path10" d="M3094.32,897.557c-8.637,9.348 -12.947,22.722 -12.947,40.105c0,17.248 4.31,30.554 12.947,39.885c8.62,9.349 19.955,14.014 34.005,14.014c14.033,0 25.367,-4.665 34.005,-14.014c8.636,-9.331 12.963,-22.637 12.963,-39.885c0,-17.383 -4.327,-30.757 -12.963,-40.105c-8.638,-9.331 -19.972,-14.014 -34.005,-14.014c-14.05,0 -25.385,4.683 -34.005,14.014l0,0Zm56.115,68.891c-5.33,6.973 -12.881,10.443 -22.637,10.443c-9.756,0 -17.093,-3.47 -21.995,-10.443c-4.919,-6.974 -7.37,-16.591 -7.37,-28.887c0,-12.296 2.583,-21.931 7.781,-28.904c5.198,-6.973 12.667,-10.46 22.424,-10.46c9.754,0 17.157,3.487 22.225,10.46c5.05,6.973 7.584,16.608 7.584,28.904c0,12.296 -2.682,21.913 -8.012,28.887l0,0Z" style="fill:#fff;"/><path id="Path19" d="M3206.87,989.186l16.632,0l0,-146.825l-16.632,0l0,146.825Z" style="fill:#fff;"/><path id="Path20" d="M3265.84,989.186l16.632,0l0,-146.825l-16.632,0l0,146.825Z" style="fill:#fff;"/><path id="Composite-Path11" d="M3387.13,935.506c-9.837,-3.739 -20.152,-5.609 -30.961,-5.609c-10.824,0 -19.84,2.594 -27.062,7.765c-7.238,5.188 -10.841,12.363 -10.841,21.56c0,9.196 3.258,16.894 9.788,23.075c6.515,6.182 15.185,9.264 26.01,9.264c16.138,0 27.292,-6.535 33.478,-19.622l1.694,17.247l14.313,0l0,-66.397c0,-13.222 -3.521,-23.076 -10.529,-29.544c-7.025,-6.468 -16.78,-9.702 -29.266,-9.702c-5.906,0 -11.385,0.573 -16.435,1.718c-16.567,3.739 -24.841,13.526 -24.841,29.325l18.326,0c0,-6.316 2.204,-10.948 6.63,-13.896c4.409,-2.947 10.233,-4.43 17.472,-4.43c7.221,0 12.732,2.021 16.533,6.047c3.783,4.026 5.691,10.713 5.691,20.044l0,13.155Zm-8.752,33.957c-5.823,5.962 -12.815,8.943 -20.941,8.943c-14.329,0 -21.486,-6.467 -21.486,-19.403c0,-5.896 2.304,-10.207 6.942,-12.936c4.64,-2.729 10.677,-4.093 18.113,-4.093c7.436,0 16.155,1.448 26.124,4.312c0,9.5 -2.928,17.214 -8.752,23.177l0,0Z" style="fill:#fff;"/><path id="Composite-Path12" d="M3459.35,842.361l-16.632,0l0,146.825l11.581,0l3.784,-18.106c3.093,6.754 7.338,11.857 12.733,15.31c5.396,3.436 11.483,5.171 18.229,5.171c12.486,0 23.08,-4.985 31.783,-14.974c8.702,-9.988 13.062,-23.076 13.062,-39.245c0,-16.17 -4.294,-29.174 -12.848,-39.027c-8.555,-9.837 -19.298,-14.772 -32.212,-14.772c-12.93,0 -22.751,5.963 -29.48,17.888l0,-59.07l0,0Zm48.959,66.835c5.675,7.041 8.521,16.456 8.521,28.247c0,11.79 -2.879,21.257 -8.637,28.364c-5.757,7.109 -12.552,10.663 -20.415,10.663c-7.865,0 -14.576,-2.83 -20.12,-8.506c-5.544,-5.677 -8.308,-13.257 -8.308,-22.756l0,-16.827c0.28,-9.331 3.093,-16.625 8.423,-21.88c5.33,-5.238 11.993,-7.866 20.005,-7.866c7.995,0 14.838,3.52 20.531,10.561l0,0Z" style="fill:#fff;"/><path id="Composite-Path13" d="M3568.11,897.557c-8.637,9.348 -12.947,22.722 -12.947,40.105c0,17.248 4.31,30.554 12.947,39.885c8.621,9.349 19.955,14.014 34.005,14.014c14.033,0 25.367,-4.665 34.004,-14.014c8.637,-9.331 12.964,-22.637 12.964,-39.885c0,-17.383 -4.327,-30.757 -12.964,-40.105c-8.637,-9.331 -19.971,-14.014 -34.004,-14.014c-14.05,0 -25.384,4.683 -34.005,14.014l0,0Zm56.115,68.891c-5.33,6.973 -12.881,10.443 -22.637,10.443c-9.755,0 -17.092,-3.47 -21.995,-10.443c-4.919,-6.974 -7.37,-16.591 -7.37,-28.887c0,-12.296 2.583,-21.931 7.782,-28.904c5.198,-6.973 12.667,-10.46 22.422,-10.46c9.756,0 17.159,3.487 22.226,10.46c5.051,6.973 7.583,16.608 7.583,28.904c0,12.296 -2.68,21.913 -8.011,28.887l0,0Z" style="fill:#fff;"/><path id="Path21" d="M3734.58,902.728l0.84,-16.591c-3.652,-1.297 -7.518,-1.954 -11.581,-1.954c-12.783,0 -21.7,7.193 -26.75,21.56l0,-19.825l-16.632,0l0,103.268l16.632,0l0,-50.227c0.559,-25.586 8.768,-38.387 24.643,-38.387c4.344,0 8.638,0.724 12.848,2.156l0,0Z" style="fill:#fff;"/><path id="Composite-Path14" d="M3823.02,935.506c-9.837,-3.739 -20.152,-5.609 -30.961,-5.609c-10.825,0 -19.84,2.594 -27.062,7.765c-7.238,5.188 -10.842,12.363 -10.842,21.56c0,9.196 3.258,16.894 9.79,23.075c6.514,6.182 15.184,9.264 26.009,9.264c16.138,0 27.292,-6.535 33.477,-19.622l1.695,17.247l14.312,0l0,-66.397c0,-13.222 -3.52,-23.076 -10.528,-29.544c-7.025,-6.468 -16.78,-9.702 -29.267,-9.702c-5.906,0 -11.384,0.573 -16.434,1.718c-16.566,3.739 -24.842,13.526 -24.842,29.325l18.327,0c0,-6.316 2.205,-10.948 6.63,-13.896c4.409,-2.947 10.232,-4.43 17.471,-4.43c7.222,0 12.733,2.021 16.533,6.047c3.784,4.026 5.692,10.713 5.692,20.044l0,13.155Zm-8.752,33.957c-5.823,5.962 -12.815,8.943 -20.941,8.943c-14.33,0 -21.486,-6.467 -21.486,-19.403c0,-5.896 2.302,-10.207 6.942,-12.936c4.639,-2.729 10.677,-4.093 18.113,-4.093c7.436,0 16.155,1.448 26.124,4.312c0,9.5 -2.928,17.214 -8.752,23.177l0,0Z" style="fill:#fff;"/><path id="Path22" d="M3928.93,974.094c-6.466,2.594 -12.289,3.875 -17.472,3.875c-9.557,0 -14.328,-5.239 -14.328,-15.732l0,-63.164l31.585,0l0,-12.936l-31.585,0l0,-28.684l-16.418,0l0,28.684l-16.221,0l0,12.936l16.221,0l0,63.383c0,5.036 0.773,9.348 2.319,12.935c2.928,7.344 7.979,12.145 15.151,14.435c9.97,3.302 20.992,2.089 33.067,-3.655l-2.319,-12.077l0,0Z" style="fill:#fff;"/><path id="Composite-Path15" d="M3971.04,967.526c-5.067,-6.822 -7.584,-15.564 -7.584,-26.209l68.864,0c2.107,-16.086 -0.328,-29.729 -7.27,-40.947c-6.943,-11.218 -17.472,-16.827 -31.587,-16.827c-14.115,0 -25.417,4.902 -33.905,14.671c-8.489,9.769 -12.734,22.857 -12.734,39.229c0,16.389 4.212,29.51 12.635,39.346c8.423,9.854 19.363,14.772 32.853,14.772c10.94,0 20.103,-2.829 27.473,-8.506c7.37,-5.676 11.829,-13.693 13.375,-24.052l-17.06,0c-1.974,12.515 -9.903,18.763 -23.788,18.763c-9.131,0 -16.221,-3.402 -21.272,-10.24l0,0Zm46.326,-39.145l-53.696,0c0.839,-8.894 3.751,-16.338 8.736,-22.301c4.985,-5.963 11.762,-8.961 20.317,-8.961c4.639,0 8.571,0.876 11.795,2.594c8.555,4.75 12.848,14.3 12.848,28.668l0,0Z" style="fill:#fff;"/><path id="Path23" d="M4072.32,987.569c2.385,-2.358 3.587,-5.238 3.587,-8.624c0,-3.368 -1.202,-6.249 -3.587,-8.623c-2.385,-2.358 -5.363,-3.554 -8.949,-3.554c-3.586,0 -6.531,1.196 -8.834,3.554c-2.32,2.374 -3.471,5.255 -3.471,8.623c0,3.386 1.151,6.266 3.471,8.624c2.303,2.358 5.248,3.554 8.834,3.554c3.586,0 6.564,-1.196 8.949,-3.554l0,0Z" style="fill:#fff;"/></g></g></svg>